<?xml version="1.0" standalone="no"?>
<!DOCTYPE svg PUBLIC "-//W3C//DTD SVG 20010904//EN"
 "http://www.w3.org/TR/2001/REC-SVG-20010904/DTD/svg10.dtd">
<svg version="1.0" xmlns="http://www.w3.org/2000/svg"
 width="700.000000pt" height="700.000000pt" viewBox="0 0 700.000000 700.000000"
 preserveAspectRatio="xMidYMid meet">
<metadata>
Created by potrace 1.14, written by Peter Selinger 2001-2017
</metadata>
<g transform="translate(0.000000,700.000000) scale(0.100000,-0.100000)"
fill="#000000" stroke="none">
<path d="M798 6984 c-339 -61 -620 -299 -738 -624 -64 -174 -61 5 -58 -2900
l3 -2645 22 -77 c105 -368 353 -614 717 -711 l81 -22 2675 0 2675 0 81 22
c184 49 334 133 459 258 125 125 209 275 258 459 l22 81 0 2675 0 2675 -22 81
c-97 364 -343 612 -711 717 l-77 22 -2655 2 c-2230 1 -2667 -1 -2732 -13z
m5034 -1382 c81 -40 139 -102 169 -181 31 -83 24 -205 -16 -279 -42 -78 -113
-137 -192 -162 -64 -20 -91 -20 -1269 -20 l-1204 0 0 -700 0 -700 1138 0
c1016 0 1144 -2 1192 -16 148 -44 240 -168 240 -324 0 -132 -66 -242 -178
-297 l-57 -28 -1167 -3 -1167 -2 -3 -713 -3 -712 -32 -67 c-40 -85 -106 -151
-191 -191 -61 -29 -75 -32 -167 -32 -91 0 -106 3 -165 31 -83 39 -150 106
-192 192 l-33 67 -3 1885 c-2 1403 0 1899 8 1940 25 118 113 236 219 294 105
56 55 55 1591 53 l1415 -2 67 -33z m-4305 -964 c74 -27 145 -95 185 -176 l33
-67 0 -1475 0 -1475 -23 -56 c-32 -80 -90 -142 -170 -181 -65 -32 -70 -33
-192 -33 -147 0 -187 14 -271 92 -62 58 -95 120 -109 204 -14 91 -14 2814 1
2894 31 169 154 280 324 295 99 8 155 3 222 -22z"/>
</g>
</svg>
