<svg xmlns="http://www.w3.org/2000/svg" xmlns:xlink="http://www.w3.org/1999/xlink" width="28" height="21" viewBox="0 0 28 21"><defs><clipPath id="a"><rect width="28" height="21" transform="translate(1578.136 82.265)" fill="#fff" stroke="#707070" stroke-width="1"/></clipPath></defs><g transform="translate(-1578.136 -82.265)" clip-path="url(#a)"><path d="M12.065,26.606a1.249,1.249,0,0,1-.905-.394L3.475,18.13a1.4,1.4,0,0,1,0-1.9,1.237,1.237,0,0,1,1.811,0l6.779,7.129L26.529,8.145a1.237,1.237,0,0,1,1.811,0,1.4,1.4,0,0,1,0,1.9L12.971,26.212A1.249,1.249,0,0,1,12.065,26.606Z" transform="translate(1576.116 75.544)" fill="#282b30" stroke="#282b30" stroke-width="1.39"/></g></svg>