<svg xmlns="http://www.w3.org/2000/svg" xmlns:xlink="http://www.w3.org/1999/xlink" width="14" height="14" viewBox="0 0 14 14"><defs><clipPath><rect width="14" height="14" transform="translate(142.263 365.277)" fill="#fff" stroke="#707070" stroke-width="1"/></clipPath></defs><g transform="translate(-142.263 -365.277)"><path d="M11.242,0H1.492A1.492,1.492,0,0,0,0,1.492V7.916A1.492,1.492,0,0,0,1.492,9.409H3.808a.1.1,0,0,1,.1.1v2.53a.7.7,0,0,0,1.189.492L8.189,9.438A.1.1,0,0,1,8.26,9.41h2.985a1.492,1.492,0,0,0,1.492-1.492V1.492A1.492,1.492,0,0,0,11.242,0Zm.9,7.916a.9.9,0,0,1-.9.9H8.258a.7.7,0,0,0-.492.2l-3.089,3.1a.1.1,0,0,1-.17-.071V9.508a.7.7,0,0,0-.7-.7H1.492a.9.9,0,0,1-.9-.9V1.492a.9.9,0,0,1,.9-.9h9.75a.9.9,0,0,1,.9.9Z" transform="translate(142.895 366.077)" fill="#fff" stroke="#fff" stroke-width="0.8"/></g></svg>
