<svg xmlns="http://www.w3.org/2000/svg" xmlns:xlink="http://www.w3.org/1999/xlink" width="18" height="14" viewBox="0 0 18 14"><defs><clipPath><rect width="18" height="14" transform="translate(1478.482 31.624)" fill="#222429" stroke="#222429" stroke-width="1"/></clipPath></defs><g transform="translate(-1478.482 -31.624)"><g transform="translate(1479.899 32.06)"><path d="M14.569,13.153c-2.1,0-6.3,1.121-6.3,3.37v1.685H20.866V16.524c0-2.25-4.2-3.37-6.3-3.37m0-1.685A3.265,3.265,0,0,0,17.718,8.1a3.265,3.265,0,0,0-3.148-3.37A3.265,3.265,0,0,0,11.421,8.1a3.265,3.265,0,0,0,3.148,3.37Z" transform="translate(-5.016 -4.727)" fill="#fff"/><path d="M0,0V4.708" transform="translate(0 4.239) rotate(-45)" fill="none" stroke="#fff" stroke-linecap="round" stroke-width="1.5"/><path d="M0,0V4.708" transform="translate(3.329 4.239) rotate(45)" fill="none" stroke="#fff" stroke-linecap="round" stroke-width="1.5"/></g></g></svg>
