<svg xmlns="http://www.w3.org/2000/svg" xmlns:xlink="http://www.w3.org/1999/xlink" width="139" height="140" viewBox="0 0 139 140"><defs><clipPath id="a"><rect width="139" height="140" transform="translate(325.37 358.862)" fill="#fff" stroke="#707070" stroke-width="1"/></clipPath></defs><g transform="translate(-325.37 -358.862)" clip-path="url(#a)"><g transform="translate(326.016 359.025)"><path d="M64.541,69.474H22.723a4.576,4.576,0,0,1-4.228-2.847,4.632,4.632,0,0,1,1-5.024L61.3,19.5a4.553,4.553,0,0,1,4.988-1,4.609,4.609,0,0,1,2.828,4.258V64.865A4.592,4.592,0,0,1,64.541,69.474ZM33.77,60.257H59.964V33.879Z" transform="translate(-18.146 -18.146)" fill="#00ec7e"/><path d="M92.777,138.6H22.723a4.592,4.592,0,0,1-4.576-4.608V64.865a4.576,4.576,0,1,1,9.153,0v64.516H92.777a13.015,13.015,0,0,0,12.951-13.041V27.363H64.541a4.608,4.608,0,0,1,0-9.217H110.3a4.592,4.592,0,0,1,4.576,4.608V116.34A22.2,22.2,0,0,1,92.777,138.6Z" transform="translate(-18.147 -18.147)" fill="#00ec7e"/><path d="M126.883,154.076H56.829a4.592,4.592,0,0,1-4.576-4.608V130.4a4.576,4.576,0,1,1,9.153,0v14.461h65.477a13.015,13.015,0,0,0,12.951-13.041V42.666H102.592a4.608,4.608,0,0,1,0-9.217H144.41a4.592,4.592,0,0,1,4.576,4.608v93.76A22.2,22.2,0,0,1,126.883,154.076Z" transform="translate(-10.435 -14.555)" fill="#00ec7e"/><path d="M83.93,80.131H38.167a4.608,4.608,0,0,1,0-9.217H83.93a4.608,4.608,0,0,1,0,9.217Z" transform="translate(-14.654 -5.762)" fill="#00ec7e"/><path d="M83.93,98.725H38.167a4.608,4.608,0,0,1,0-9.217H83.93a4.608,4.608,0,0,1,0,9.217Z" transform="translate(-14.654 -1.398)" fill="#00ec7e"/><path d="M117.034,98.725H94.152a4.608,4.608,0,0,1,0-9.217h22.881a4.608,4.608,0,0,1,0,9.217Z" transform="translate(-1.995 -1.398)" fill="#00ec7e"/><path d="M117.034,80.131H94.152a4.608,4.608,0,0,1,0-9.217h22.881a4.608,4.608,0,0,1,0,9.217Z" transform="translate(-1.995 -5.762)" fill="#00ec7e"/></g></g></svg>