<svg xmlns="http://www.w3.org/2000/svg" xmlns:xlink="http://www.w3.org/1999/xlink" width="16" height="20" viewBox="0 0 16 20"><defs><clipPath id="a"><rect width="16" height="20" transform="translate(1067.291 477.23)" fill="#fff" stroke="#707070" stroke-width="1"/></clipPath><clipPath id="b"><path d="M10.187,1.214l5.982,6.167H11.107a1.028,1.028,0,0,1-.92-.949V1.214Z" transform="translate(-10.187 -1.214)" fill="#f9f8f2"/></clipPath></defs><g transform="translate(-1067.291 -477.23)" clip-path="url(#a)"><g transform="translate(1067.351 476.911)"><path d="M6.434,6.356c-.04-.115-.05-.328-.193-.356h0a1.148,1.148,0,0,1-.129.03,1.86,1.86,0,0,0,.353,1.031A4.063,4.063,0,0,0,6.434,6.356Z" transform="translate(-0.062 0.318)" fill="#00ec7e"/><path d="M7.032,9.179h0L6.98,9.119a20.045,20.045,0,0,1-1,3.574,18.834,18.834,0,0,1,3.575-.914A19.558,19.558,0,0,1,7.032,9.179Z" transform="translate(-0.062 0.318)" fill="#00ec7e"/><path d="M3.679,14.781c-.089.087.105.3.176.187a2.54,2.54,0,0,0,.556-.69h0l.06-.11A2.2,2.2,0,0,0,3.679,14.781Z" transform="translate(-0.062 0.318)" fill="#00ec7e"/><path d="M10.17,0H1.07A.912.912,0,0,0,.2.866v18.19a.951.951,0,0,0,.866.866H14.934a.951.951,0,0,0,.866-.866V5.63Zm2.371,13.492a4.264,4.264,0,0,1-2.19-1.056A17.246,17.246,0,0,0,5.633,13.63a13.244,13.244,0,0,1-.746,1.324c-.285.377-.675.827-1.2.755a.861.861,0,0,1-.252-.075.881.881,0,0,1-.426-1.172,4.111,4.111,0,0,1,2-1.407,16.577,16.577,0,0,0,1.24-4.042,3.228,3.228,0,0,0,.09-.706,4.993,4.993,0,0,1-.964-2.042.981.981,0,0,1-.012-.133.863.863,0,0,1,.854-.872.814.814,0,0,1,.722.369,4.169,4.169,0,0,1,.22,2.458,16.875,16.875,0,0,0,3.377,3.53,6.744,6.744,0,0,1,2.01.084.981.981,0,0,1,.825.828l0,.032A.882.882,0,0,1,12.541,13.492Z" transform="translate(-0.062 0.318)" fill="#00ec7e"/><path d="M11.608,12.363a2.449,2.449,0,0,0,.707.347c.121.066.343.039.321-.144a1.494,1.494,0,0,0-.87-.214C11.713,12.353,11.661,12.363,11.608,12.363Z" transform="translate(-0.062 0.318)" fill="#00ec7e"/><g transform="translate(9.756 0.318)" clip-path="url(#b)"><path d="M10.41,1.574,15.577,6.9H11.2a.888.888,0,0,1-.795-.82V1.574Z" transform="translate(-10.133 -1.114)" fill="rgba(0,0,0,0.3)"/></g><path d="M10.34,1.549l5.63,5.63H11.206a.952.952,0,0,1-.866-.866V1.549Z" transform="translate(-0.232 -1.23)" fill="#01cb6d"/></g></g></svg>