<svg xmlns="http://www.w3.org/2000/svg" xmlns:xlink="http://www.w3.org/1999/xlink" width="16" height="16" viewBox="0 0 16 16"><defs><clipPath><rect width="16" height="16" transform="translate(0.241 0.229)" fill="#fff" stroke="#707070" stroke-width="1"/></clipPath><clipPath><rect width="16" height="16" fill="#fff" stroke="#707070" stroke-width="0.889"/></clipPath></defs><g transform="translate(-0.241 -0.229)"><g transform="translate(0.241 0.229)"><g transform="translate(16.001 15.976) rotate(180)"><path d="M15.608,7.026,8.952.37a1.345,1.345,0,0,0-1.9,1.9l5.7,5.7-5.7,5.706a1.345,1.345,0,0,0,1.9,1.9l6.656-6.656a1.343,1.343,0,0,0,0-1.9Zm-8-.4L2.32,1.053a1.311,1.311,0,0,0-1.922,0,1.486,1.486,0,0,0,0,2.025L4.722,7.636.4,12.193a1.486,1.486,0,0,0,0,2.025,1.311,1.311,0,0,0,1.922,0L7.6,8.648a1.486,1.486,0,0,0,0-2.025Z" fill="#efefef"/></g></g></g></svg>
