<svg xmlns="http://www.w3.org/2000/svg" xmlns:xlink="http://www.w3.org/1999/xlink" width="22" height="23" viewBox="0 0 22 23"><defs><clipPath><rect width="22" height="23" transform="translate(0 0)" fill="#fff" stroke="#707070" stroke-width="1"/></clipPath></defs><g transform="translate(0 0)"><path d="M13.938,9.874,10.055,5.99a.617.617,0,0,1,.873-.873l4.937,4.937a.617.617,0,0,1,0,.873l-4.937,4.937a.617.617,0,0,1-.873-.873l3.884-3.883H.617a.617.617,0,1,1,0-1.234Zm1.49-8.64a.617.617,0,1,1,0-1.234h3.7a3.086,3.086,0,0,1,3.086,3.086V17.9a3.086,3.086,0,0,1-3.086,3.086h-3.7a.617.617,0,1,1,0-1.234h3.7A1.851,1.851,0,0,0,20.982,17.9V3.086a1.851,1.851,0,0,0-1.851-1.851Z" transform="translate(21.525 0.406) rotate(90)" fill="#00ec7e" stroke="#00ec7e" stroke-width="0.8"/></g></svg>
