<svg xmlns="http://www.w3.org/2000/svg" xmlns:xlink="http://www.w3.org/1999/xlink" width="37" height="24" viewBox="0 0 37 24"><defs><clipPath id="a"><rect width="37" height="24" transform="translate(0 -0.307)" fill="#fff" stroke="#707070" stroke-width="1"/></clipPath></defs><g transform="translate(0 0.307)" clip-path="url(#a)"><g transform="translate(1.038 1.261)"><path d="M31.234,3.78H2.716A2.724,2.724,0,0,0,0,6.5v16.3a2.724,2.724,0,0,0,2.716,2.716H31.234a2.724,2.724,0,0,0,2.716-2.716V6.5A2.724,2.724,0,0,0,31.234,3.78Zm-.679,1.358L16.975,16.953,3.4,5.138Zm-28.79,18.6a1.233,1.233,0,0,1-.407-.951V6.5a1.233,1.233,0,0,1,.407-.951l10.457,9.1Zm1.63.407,9.914-8.556,3.667,3.123,3.667-3.123,9.913,8.555H3.4Zm29.2-1.358a1.233,1.233,0,0,1-.407.951l-10.457-9.1,10.457-9.1a1.233,1.233,0,0,1,.407.951Z" transform="translate(0 -3.78)" fill="#282b30" stroke="#282b30" stroke-width="0.5"/></g></g></svg>