<svg xmlns="http://www.w3.org/2000/svg" xmlns:xlink="http://www.w3.org/1999/xlink" width="28" height="25" viewBox="0 0 28 25"><defs><clipPath><rect width="28" height="25" transform="translate(1296.348 34)" fill="#fff" stroke="#707070" stroke-width="1"/></clipPath></defs><g transform="translate(-1296.348 -34)"><g transform="translate(1296.691 34.944)"><path d="M26.1,7.132H8.238a1.051,1.051,0,1,1,0-2.1H26.1a1.051,1.051,0,0,1,0,2.1Z" transform="translate(0.166 -2.93)" fill="#282B30"/><path d="M6.358,7.132H3.207a1.051,1.051,0,1,1,0-2.1H6.358a1.051,1.051,0,0,1,0,2.1Z" transform="translate(-2.156 -2.93)" fill="#282B30"/><path d="M21.066,12.882H3.207a1.051,1.051,0,0,1,0-2.1H21.066a1.051,1.051,0,1,1,0,2.1Z" transform="translate(-2.156 -0.276)" fill="#282B30"/><path d="M10.56,18.632H3.207a1.051,1.051,0,0,1,0-2.1H10.56a1.051,1.051,0,1,1,0,2.1Z" transform="translate(-2.156 2.378)" fill="#282B30"/><path d="M7.464,9.9a3.152,3.152,0,1,1,3.152-3.152A3.152,3.152,0,0,1,7.464,9.9Zm0-4.2A1.051,1.051,0,1,0,8.515,6.745,1.051,1.051,0,0,0,7.464,5.695Z" transform="translate(-1.161 -3.594)" fill="#282B30"/><path d="M17.527,15.647A3.152,3.152,0,1,1,20.678,12.5,3.152,3.152,0,0,1,17.527,15.647Zm0-4.2A1.051,1.051,0,1,0,18.577,12.5,1.051,1.051,0,0,0,17.527,11.445Z" transform="translate(3.484 -0.94)" fill="#282B30"/><path d="M10.339,21.4a3.152,3.152,0,1,1,3.152-3.152A3.152,3.152,0,0,1,10.339,21.4Zm0-4.2a1.051,1.051,0,1,0,1.051,1.051A1.051,1.051,0,0,0,10.339,17.195Z" transform="translate(0.166 1.715)" fill="#282B30"/><path d="M21.452,12.882H18.3a1.051,1.051,0,1,1,0-2.1h3.152a1.051,1.051,0,1,1,0,2.1Z" transform="translate(4.811 -0.276)" fill="#282B30"/><path d="M24.77,18.632H11.113a1.051,1.051,0,0,1,0-2.1H24.77a1.051,1.051,0,0,1,0,2.1Z" transform="translate(1.493 2.378)" fill="#282B30"/></g></g></svg>
