<svg xmlns="http://www.w3.org/2000/svg" xmlns:xlink="http://www.w3.org/1999/xlink" width="80" height="80" viewBox="0 0 80 80"><defs><clipPath id="a"><rect width="80" height="80" transform="translate(702 453)" fill="#fff" stroke="#707070" stroke-width="1"/></clipPath><clipPath id="b"><rect width="35" height="30" transform="translate(945 409)" fill="#fff" stroke="#707070" stroke-width="1"/></clipPath></defs><g transform="translate(-775 -390)"><g transform="translate(73 -63)" clip-path="url(#a)"><g transform="translate(702 453)"><path d="M40,0A40,40,0,1,0,80,40,40.118,40.118,0,0,0,40,0Zm0,12A11.786,11.786,0,0,1,52,24,11.786,11.786,0,0,1,40,36,11.786,11.786,0,0,1,28,24,11.786,11.786,0,0,1,40,12Zm0,56.8A29.182,29.182,0,0,1,16,56c0-8,16-12.4,24-12.4S64,48,64,56A29.182,29.182,0,0,1,40,68.8Z" fill="#8b8c8f"/></g></g><g transform="translate(-147 6)" clip-path="url(#b)"><g transform="translate(945 410.088)"><g transform="translate(0 0)"><path d="M17.532,13.419a5.259,5.259,0,1,0,5.259,5.259A5.26,5.26,0,0,0,17.532,13.419ZM31.557,8.159H27.349a1.561,1.561,0,0,1-1.385-1L24.877,3.9a1.562,1.562,0,0,0-1.385-1H11.571a1.561,1.561,0,0,0-1.385,1L9.1,7.162a1.562,1.562,0,0,1-1.385,1H3.506A3.517,3.517,0,0,0,0,11.666V27.444a3.517,3.517,0,0,0,3.506,3.506H31.557a3.517,3.517,0,0,0,3.506-3.506V11.666A3.517,3.517,0,0,0,31.557,8.159ZM17.532,27.444A8.766,8.766,0,1,1,26.3,18.678,8.766,8.766,0,0,1,17.532,27.444Zm12.8-13.327a1.227,1.227,0,1,1,1.227-1.227A1.227,1.227,0,0,1,30.33,14.118Z" transform="translate(0 -2.9)" fill="#fff"/></g></g></g></g></svg>