<svg xmlns="http://www.w3.org/2000/svg" xmlns:xlink="http://www.w3.org/1999/xlink" width="26" height="21" viewBox="0 0 26 21"><defs><clipPath id="a"><rect width="26" height="21" transform="translate(-0.373 0.684)" fill="#00ec7e" stroke="#707070" stroke-width="1"/></clipPath></defs><g transform="translate(0.373 -0.684)" clip-path="url(#a)"><g transform="translate(-0.098 1.123)"><path d="M26.47,7.211H23.743V4.7a.876.876,0,0,0-.909-.838h-20a.876.876,0,0,0-.909.838V19.788a.876.876,0,0,0,.909.838H5.564v2.515a.876.876,0,0,0,.909.838h20a.876.876,0,0,0,.909-.838V8.049A.876.876,0,0,0,26.47,7.211ZM3.746,18.95V5.534H21.925V7.211H6.473a.876.876,0,0,0-.909.838v10.9Zm7.271-8.385a1.752,1.752,0,0,1,1.818,1.677,1.752,1.752,0,0,1-1.818,1.677A1.752,1.752,0,0,1,9.2,12.242,1.752,1.752,0,0,1,11.018,10.565Zm12.625,9.609a.921.921,0,0,1-.809.453H10.109a.92.92,0,0,1-.809-.461.785.785,0,0,1,.082-.88l2.727-3.354a.959.959,0,0,1,1.136-.243l1.227.562,3.172-2.926a.954.954,0,0,1,.718-.243.927.927,0,0,1,.664.352L23.57,19.3A.784.784,0,0,1,23.643,20.174Z" transform="translate(-1.929 -3.857)" fill="#00ec7e"/></g></g></svg>