<svg xmlns="http://www.w3.org/2000/svg" xmlns:xlink="http://www.w3.org/1999/xlink" width="26.042" height="21" viewBox="0 0 26.042 21"><defs><clipPath id="a"><rect width="26.042" height="21" fill="#fff" stroke="#707070" stroke-width="1"/></clipPath></defs><g clip-path="url(#a)"><g transform="translate(0.54 0.043)"><path d="M3.314,23.451A2.548,2.548,0,0,1,.766,20.9V5.613A2.548,2.548,0,0,1,3.314,3.064H9.26a.849.849,0,0,1,.654.306l2.574,3.092H22.851a.849.849,0,1,1,0,1.7H12.089a.849.849,0,0,1-.646-.306L8.861,4.763H3.314a.849.849,0,0,0-.849.849V20.9a.849.849,0,0,0,.849.849.849.849,0,1,1,0,1.7Z" transform="translate(-0.766 -3.064)" fill="#fff"/><path d="M21.31,22.784H3.15A.849.849,0,0,1,2.3,21.756L4.848,9.864A.849.849,0,0,1,5.7,9.193H25.235a.849.849,0,0,1,.849,1.028l-2.276,10.55a2.548,2.548,0,0,1-2.5,2.013ZM4.2,21.085H21.31a.849.849,0,0,0,.849-.671l2.022-9.522H6.343Z" transform="translate(-0.601 -2.398)" fill="#fff"/></g></g></svg>