<svg xmlns="http://www.w3.org/2000/svg" xmlns:xlink="http://www.w3.org/1999/xlink" width="15" height="14" viewBox="0 0 15 14"><defs><clipPath><rect width="15" height="14" transform="translate(89 368)" fill="#282b30" stroke="#707070" stroke-width="1"/></clipPath></defs><g transform="translate(-89 -368)"><g transform="translate(89.446 368.444)"><g transform="translate(0 0)"><path d="M-6.182-143.058c0-.941-.735-1.44-1.764-1.44h-2.969a9.083,9.083,0,0,0,.323-2.2c0-2.557-.705-3.086-1.323-3.086a1.783,1.783,0,0,0-1.117.294.425.425,0,0,0-.206.294l-.441,2.381a7.745,7.745,0,0,1-2.645,3.086v6.29a2.662,2.662,0,0,1,1.117.382,3.447,3.447,0,0,0,1.528.47h4.2a1.491,1.491,0,0,0,1.528-1.323,1.1,1.1,0,0,0-.029-.323,1.306,1.306,0,0,0,.911-1.205,1.533,1.533,0,0,0-.147-.676,1.445,1.445,0,0,0,.676-1.088,1.227,1.227,0,0,0-.294-.735,1.5,1.5,0,0,0,.647-1.117Zm-.911,0c0,.558-.588.617-.676.882-.088.294.353.411.353.941,0,.558-.676.558-.764.823-.118.323.206.441.206.97v.088c-.088.441-.764.47-.882.647-.118.206.029.323.029.794,0,.265-.294.441-.647.441h-4.2a2.662,2.662,0,0,1-1.117-.382,4.966,4.966,0,0,0-1.088-.441v-4.673a8.847,8.847,0,0,0,3.057-3.615c0-.029,0-.059.029-.059l.411-2.2a1.224,1.224,0,0,1,.5-.059c.088,0,.441.529.441,2.2a8.129,8.129,0,0,1-.353,2.2h-.118a.452.452,0,0,0-.441.441.452.452,0,0,0,.441.441h3.968c.441,0,.852.206.852.558Z" transform="translate(20.29 149.789)" fill="#282b30" stroke="#282b30" stroke-width="0.5"/><path d="M-16.7-136.562H-19.34a.866.866,0,0,1-.882-.882v-6.172a.866.866,0,0,1,.882-.882H-16.7a.866.866,0,0,1,.882.882v6.172a.866.866,0,0,1-.882.882Zm-2.645-7.054v6.172H-16.7v-6.172Zm-.882-6.172" transform="translate(20.222 149.789)" fill="#282b30" stroke="#282b30" stroke-width="0.5"/></g></g></g></svg>
