<svg xmlns="http://www.w3.org/2000/svg" xmlns:xlink="http://www.w3.org/1999/xlink" width="23" height="25" viewBox="0 0 23 25"><defs><clipPath id="a"><rect width="23" height="25" transform="translate(0 0.112)" fill="#fff" stroke="#707070" stroke-width="1"/></clipPath></defs><g transform="translate(0 -0.112)" clip-path="url(#a)"><g transform="translate(0.935 1.15)"><path d="M12.839,19.033a.653.653,0,0,0,.922.922L18.42,15.3h0a.654.654,0,0,0,0-.922h0L13.763,9.72a.653.653,0,0,0-.922.922l3.542,3.541H3.729a.653.653,0,1,0,0,1.307H16.381Z" transform="translate(-3.075 -3.575)" fill="#282b30" stroke="#282b30" stroke-width="0.4"/><path d="M21.606,3.483H10.74a2.633,2.633,0,0,0-2.63,2.63V8.771a.653.653,0,0,0,1.306,0V6.113a1.325,1.325,0,0,1,1.325-1.325H21.606a1.325,1.325,0,0,1,1.325,1.325V23.5a1.325,1.325,0,0,1-1.325,1.325H10.74A1.325,1.325,0,0,1,9.415,23.5V20.912a.653.653,0,1,0-1.306,0V23.5a2.633,2.633,0,0,0,2.63,2.63H21.606a2.633,2.633,0,0,0,2.63-2.63V6.113A2.633,2.633,0,0,0,21.606,3.483Z" transform="translate(-3.151 -3.483)" fill="#282b30" stroke="#282b30" stroke-width="0.4"/></g></g></svg>