<svg xmlns="http://www.w3.org/2000/svg" xmlns:xlink="http://www.w3.org/1999/xlink" width="30" height="30" viewBox="0 0 30 30"><defs><clipPath id="a"><rect width="30" height="30" transform="translate(702 453)" fill="#fff" stroke="#707070" stroke-width="1"/></clipPath></defs><g transform="translate(-702 -453)" clip-path="url(#a)"><g transform="translate(702 453)"><path d="M15,0A15,15,0,1,0,30,15,15.044,15.044,0,0,0,15,0Zm0,4.5A4.42,4.42,0,0,1,19.5,9,4.42,4.42,0,0,1,15,13.5,4.42,4.42,0,0,1,10.5,9,4.42,4.42,0,0,1,15,4.5Zm0,21.3A10.943,10.943,0,0,1,6,21c0-3,6-4.65,9-4.65S24,18,24,21A10.943,10.943,0,0,1,15,25.8Z" fill="#efefef"/></g></g></svg>