<svg xmlns="http://www.w3.org/2000/svg" xmlns:xlink="http://www.w3.org/1999/xlink" width="23" height="24" viewBox="0 0 23 24"><defs><clipPath><rect width="23" height="24" transform="translate(9.408 12.472)" fill="#fff" stroke="#707070" stroke-width="1"/></clipPath></defs><g transform="translate(-9.408 -12.472)" clip-path="url(#a)"><g transform="translate(11.035 14.204)"><path d="M18.131,19.109H3.847a2.764,2.764,0,0,1-2.75-2.75v-7.9a2.764,2.764,0,0,1,2.75-2.75H18.131a2.764,2.764,0,0,1,2.75,2.75v7.9A2.764,2.764,0,0,1,18.131,19.109Z" transform="translate(-1.096 2.339)" fill="none" stroke="#282b30" stroke-linecap="round" stroke-miterlimit="10" stroke-width="1.6"/><path d="M12.215,8.628H5.738a1.1,1.1,0,0,1-1.065-1.1V4.694A4.039,4.039,0,0,1,8.666.577H9.2a4.039,4.039,0,0,1,3.993,4.117V7.53A.932.932,0,0,1,12.215,8.628Z" transform="translate(1.04 -0.577)" fill="none" stroke="#282b30" stroke-linecap="round" stroke-miterlimit="10" stroke-width="1.6"/><path d="M8.1,14.35a1.453,1.453,0,0,1-1.519-1.42V9.381A1.453,1.453,0,0,1,8.1,7.962a1.453,1.453,0,0,1,1.519,1.42V12.93A1.453,1.453,0,0,1,8.1,14.35Z" transform="translate(1.882 3.55)" fill="#282b30"/></g></g></svg>
