<svg xmlns="http://www.w3.org/2000/svg" xmlns:xlink="http://www.w3.org/1999/xlink" width="23" height="23" viewBox="0 0 23 23"><defs><clipPath><rect width="23" height="23" transform="translate(-30.213 -4.86)" fill="#fff" stroke="#707070" stroke-width="1"/></clipPath></defs><g transform="translate(30.213 4.86)"><g transform="translate(-29.813 -4.612)"><g transform="translate(0 0)"><path d="M16.762,3.254s.2-.2,2.215,1.833,1.81,2.239,1.81,2.239L8.828,19.414s.2-.2-1.812-2.238S4.8,15.342,4.8,15.342Z" transform="translate(-1.624 -0.329)" fill="#282b30"/><path d="M4.167,15.107,1.436,21.818l6.631-2.764s.194-.2-1.756-2.169-2.145-1.778-2.145-1.778" transform="translate(-1.436 0.626)" fill="#282b30"/><path d="M16.632,2.765,18.278,1.1s1.648-1.667,3.708.417.411,3.75.411,3.75L20.75,6.932s.206-.209-1.852-2.291-2.266-1.876-2.266-1.876" transform="translate(-0.988 -0.468)" fill="#282b30"/></g></g></g></svg>
