<svg xmlns="http://www.w3.org/2000/svg" xmlns:xlink="http://www.w3.org/1999/xlink" width="23" height="23" viewBox="0 0 23 23"><defs><clipPath id="a"><rect width="23" height="23" transform="translate(1487 30)" fill="#fff" stroke="#707070" stroke-width="1"/></clipPath></defs><g transform="translate(-1487 -30)" clip-path="url(#a)"><path d="M13.8,2.3A11.5,11.5,0,1,1,2.3,13.8,11.5,11.5,0,0,1,13.8,2.3Zm1.15,10.35V8.05a1.15,1.15,0,1,0-2.3,0v4.6H8.05a1.15,1.15,0,1,0,0,2.3h4.6v4.6a1.15,1.15,0,0,0,2.3,0v-4.6h4.6a1.15,1.15,0,0,0,0-2.3Z" transform="translate(1484.7 27.7)" fill="#282B30" fill-rule="evenodd"/></g></svg>
