<svg xmlns="http://www.w3.org/2000/svg" xmlns:xlink="http://www.w3.org/1999/xlink" width="31" height="24" viewBox="0 0 31 24"><defs><clipPath id="a"><rect width="31" height="24" transform="translate(1477.398 31.573)" fill="#282B30" stroke="#282B30" stroke-width="1"/></clipPath></defs><g transform="translate(-1477.398 -31.573)" clip-path="url(#a)"><g transform="translate(1479.344 32.056)"><path d="M19.113,19.233c-3.618,0-10.84,1.929-10.84,5.8v2.9h21.68v-2.9c0-3.873-7.222-5.8-10.84-5.8m0-2.9a5.621,5.621,0,0,0,5.42-5.8,5.621,5.621,0,0,0-5.42-5.8,5.621,5.621,0,0,0-5.42,5.8,5.621,5.621,0,0,0,5.42,5.8Z" transform="translate(-1.479 -4.727)" fill="#282b30"/><path d="M1482.66,35.633v8.1" transform="translate(-1478.608 -29.52)" fill="none" stroke="#282b30" stroke-linecap="round" stroke-width="2.4"/><path d="M0,0V8.1" transform="translate(8.105 10.163) rotate(90)" fill="none" stroke="#282b30" stroke-linecap="round" stroke-width="2.4"/></g></g></svg>
