<svg xmlns="http://www.w3.org/2000/svg" xmlns:xlink="http://www.w3.org/1999/xlink" width="26" height="23" viewBox="0 0 26 23"><defs><clipPath><rect width="26" height="23" transform="translate(723.578 476.625)" fill="#fff" stroke="#707070" stroke-width="1"/></clipPath></defs><g transform="translate(-723.578 -476.625)"><g transform="translate(724.189 477.266)"><path d="M24.879,23.427a.84.84,0,0,1-.68-.344l-1.78-2.451A15.665,15.665,0,0,0,12.286,14.4V17.55a.839.839,0,0,1-1.343.672L.869,10.667a.839.839,0,0,1,0-1.343L10.943,1.768a.839.839,0,0,1,1.343.672V6A15.95,15.95,0,0,1,25.718,21.748v.839a.84.84,0,0,1-.579.8.94.94,0,0,1-.26.042ZM11.447,12.606h.084a17.361,17.361,0,0,1,12.248,7.043l.134.176A14.271,14.271,0,0,0,11.321,7.569a.839.839,0,0,1-.747-.839V4.118l-7.8,5.876,7.832,5.876V13.445a.843.843,0,0,1,.839-.839Z" transform="translate(-0.533 -1.6)" fill="#282b30" stroke="#282b30" stroke-width="0.533"/></g></g></svg>
