<svg xmlns="http://www.w3.org/2000/svg" xmlns:xlink="http://www.w3.org/1999/xlink" width="22" height="25" viewBox="0 0 22 25"><defs><clipPath id="a"><rect width="22" height="25" fill="#fff" stroke="#707070" stroke-width="1"/></clipPath></defs><g clip-path="url(#a)"><g transform="translate(1 1.104)"><g transform="translate(1.994 8.547)"><path d="M15.954,22.792H6.724A3.368,3.368,0,0,1,3.362,19.43V9.117a.538.538,0,0,1,.57-.57.538.538,0,0,1,.57.57V19.43a2.225,2.225,0,0,0,2.222,2.222h9.231a2.225,2.225,0,0,0,2.222-2.222V9.117a.57.57,0,0,1,1.14,0V19.43A3.405,3.405,0,0,1,15.954,22.792Z" transform="translate(-3.362 -8.547)" fill="#ff4d58" stroke="#ff4d58" stroke-width="0.6"/></g><path d="M18.974,2.792h-4.33a3.352,3.352,0,0,0-6.61,0H3.7A2.311,2.311,0,0,0,1.368,5.128,2.263,2.263,0,0,0,3.7,7.407H19.031a2.309,2.309,0,1,0-.057-4.615ZM11.339,1.14a2.142,2.142,0,0,1,2.108,1.652H9.174A2.257,2.257,0,0,1,11.339,1.14Zm7.635,5.128H3.7a1.2,1.2,0,0,1,0-2.393H19.031a1.2,1.2,0,0,1,1.2,1.2A1.253,1.253,0,0,1,18.974,6.268Z" transform="translate(-1.368)" fill="#ff4d58" stroke="#ff4d58" stroke-width="0.6"/><g transform="translate(5.413 9.345)"><path d="M7.35,20a.538.538,0,0,1-.57-.57V9.915a.57.57,0,1,1,1.14,0V19.43A.613.613,0,0,1,7.35,20Z" transform="translate(-6.781 -9.345)" fill="#ff4d58" stroke="#ff4d58" stroke-width="0.6"/></g><g transform="translate(13.39 9.345)"><path d="M15.328,20a.538.538,0,0,1-.57-.57V9.915a.57.57,0,1,1,1.14,0V19.43A.613.613,0,0,1,15.328,20Z" transform="translate(-14.758 -9.345)" fill="#ff4d58" stroke="#ff4d58" stroke-width="0.6"/></g><g transform="translate(9.402 9.345)"><path d="M11.339,20a.538.538,0,0,1-.57-.57V9.915a.57.57,0,1,1,1.14,0V19.43A.613.613,0,0,1,11.339,20Z" transform="translate(-10.769 -9.345)" fill="#ff4d58" stroke="#ff4d58" stroke-width="0.6"/></g></g></g></svg>