<svg xmlns="http://www.w3.org/2000/svg" xmlns:xlink="http://www.w3.org/1999/xlink" width="22" height="22" viewBox="0 0 22 22"><defs><clipPath id="a"><rect width="22" height="22" transform="translate(1026.821 477.036)" fill="#fff" stroke="#707070" stroke-width="1"/></clipPath></defs><g transform="translate(-1026.821 -477.036)" clip-path="url(#a)"><g transform="translate(1027.146 477.243)"><path d="M5.385,9.5,2.33,4.1A10.554,10.554,0,0,1,19.86,5.343H11.15c-.157-.015-.315-.022-.475-.022A5.494,5.494,0,0,0,5.385,9.5ZM14.5,6.917h6.119a11.073,11.073,0,0,1,.734,3.98A10.79,10.79,0,0,1,10.8,21.793l4.365-7.719A5.654,5.654,0,0,0,14.5,6.917ZM6.8,10.9a3.879,3.879,0,1,1,3.878,3.959A3.923,3.923,0,0,1,6.8,10.9Zm5.342,5.372-3.057,5.4A10.832,10.832,0,0,1,0,10.9,11.01,11.01,0,0,1,1.371,5.555l4.357,7.7a5.464,5.464,0,0,0,4.947,3.214A5.326,5.326,0,0,0,12.139,16.27Z" transform="translate(0 -0.001)" fill="#00ec7e"/></g></g></svg>