<svg xmlns="http://www.w3.org/2000/svg" xmlns:xlink="http://www.w3.org/1999/xlink" width="142" height="140" viewBox="0 0 142 140"><defs><clipPath id="a"><rect width="142" height="140" transform="translate(187.854 214)" fill="#fff" stroke="#707070" stroke-width="1"/></clipPath></defs><g transform="translate(-187.854 -214)" clip-path="url(#a)"><g transform="translate(188.927 214)"><path d="M72.435,142.435a70,70,0,1,0-70-70A70.06,70.06,0,0,0,72.435,142.435ZM18.242,100.323l28.452-.226a101.332,101.332,0,0,0,15.694,32.4A61.055,61.055,0,0,1,18.242,100.323ZM53.919,53.242H89.371a95.783,95.783,0,0,1,.226,37.6l-35.677.226A92.789,92.789,0,0,1,53.919,53.242ZM71.645,129.9A90.623,90.623,0,0,1,56.177,100.1l31.048-.226A95.39,95.39,0,0,1,71.645,129.9Zm9.032,2.935A99.552,99.552,0,0,0,96.6,99.758l30.371-.226A61.116,61.116,0,0,1,80.677,132.839Zm52.726-60.4a62.965,62.965,0,0,1-2.71,18.065l-31.952.226a102.049,102.049,0,0,0-.226-37.484h31.726A60.013,60.013,0,0,1,133.4,72.435Zm-7-28.226H96.371A103.82,103.82,0,0,0,80.677,12.032,60.706,60.706,0,0,1,126.4,44.21Zm-39.4,0H56.29A93.281,93.281,0,0,1,71.645,14.968,93.282,93.282,0,0,1,87,44.21ZM62.387,12.371A100.321,100.321,0,0,0,46.919,44.21H18.468A60.752,60.752,0,0,1,62.387,12.371ZM44.774,53.242a103.882,103.882,0,0,0-.113,37.823l-30.145.226a58.4,58.4,0,0,1-3.048-18.855,60.013,60.013,0,0,1,3.161-19.194Z" transform="translate(-2.435 -2.435)" fill="#00ec7e"/></g></g></svg>