<svg xmlns="http://www.w3.org/2000/svg" width="113.291" height="28.869" viewBox="0 0 113.291 28.869"><g transform="translate(0)"><path d="M99.766,157.492l-6.338-6.766H88.079v5.6a1.921,1.921,0,0,1-2.056,1.843,1.874,1.874,0,0,1-2.053-1.807V137.445a1.865,1.865,0,0,1,2.053-1.843h7.9c6.338,0,9.563,3.4,9.563,7.649A6.862,6.862,0,0,1,98.1,150.23l4.25,4.462C104.515,156.961,101.538,159.406,99.766,157.492Zm-5.806-10.2c3.789,0,5.455-1.843,5.384-4-.035-2.339-2.056-4.111-5.384-4.111h-5.88v8.113Z" transform="translate(-83.971 -135.248)" fill="#fff"/><path d="M104.565,151.007c2.162-1.946,4.64.744,2.655,2.623a8.962,8.962,0,0,1-6.409,2.126c-5.561,0-9.353-3.65-9.353-8.963,0-5.809,3.579-9.776,9.247-9.776s8.854,3.718,8.89,9.209c0,1.17-.213,2.126-2.23,2.126h-11.8a5.217,5.217,0,0,0,5.136,3.9A6.206,6.206,0,0,0,104.565,151.007ZM95.534,145.2h10.307c-.248-2.8-1.772-4.675-5.1-4.675A5.211,5.211,0,0,0,95.534,145.2Z" transform="translate(-69.346 -132.484)" fill="#fff"/><path d="M116.966,146.193c0,5.7-3.435,9.563-8.571,9.563a9.849,9.849,0,0,1-5.207-1.63v5.419a2.011,2.011,0,0,1-4,0V139.179c0-1.134.777-1.807,2.053-1.807,1.063,0,1.7.425,1.878,1.24a8.891,8.891,0,0,1,5.136-1.595C113.5,137.017,116.966,140.735,116.966,146.193Zm-4.037.033c0-3.364-1.985-5.629-4.959-5.629a5.418,5.418,0,0,0-4.782,2.8v5.88c.744,1.843,2.939,2.9,5.1,2.9C111.086,152.177,112.929,149.77,112.929,146.226Z" transform="translate(-54.249 -132.484)" fill="#fff"/><path d="M125.109,146.474c-.071,5.564-3.86,9.282-9.421,9.282s-9.35-3.718-9.421-9.282c0-5.629,3.789-9.457,9.421-9.457C121.356,137.017,125.109,140.845,125.109,146.474Zm-4.144,0c0-3.47-2.091-5.916-5.278-5.916s-5.278,2.445-5.278,5.916c0,3.4,2.088,5.738,5.278,5.738S120.966,149.876,120.966,146.474Z" transform="translate(-40.419 -132.484)" fill="#fff"/><path d="M115.606,139.484a1.827,1.827,0,0,1-2.056-1.772v-.458a1.829,1.829,0,0,1,2.056-1.772,1.863,1.863,0,0,1,2.053,1.772v.458A1.861,1.861,0,0,1,115.606,139.484Z" transform="translate(-26.193 -135.482)" fill="#ff4d58"/><path d="M115.582,137.137a1.849,1.849,0,0,1,2.02,1.7v14.593a1.83,1.83,0,0,1-2.02,1.737,1.849,1.849,0,0,1-2.02-1.737V138.874A1.872,1.872,0,0,1,115.582,137.137Z" transform="translate(-26.169 -132.249)" fill="#00ec7e"/><path d="M120.335,146.086H131.67a1.721,1.721,0,0,1,1.843,1.737,1.669,1.669,0,0,1-1.843,1.663H120.335v6.766a2.042,2.042,0,0,1-4.073.035V137.693a2.24,2.24,0,0,1,2.3-2.091h13.742a1.724,1.724,0,1,1,0,3.435H120.335Z" transform="translate(-20.895 -135.248)" fill="#00ec7e"/></g></svg>