<svg xmlns="http://www.w3.org/2000/svg" width="240.557" height="45.885" viewBox="0 0 240.557 45.885"><g transform="translate(40.645 14.754)"><path d="M72.805,46.085V38.648h1.58v7.437Z" transform="translate(-72.805 -38.648)" fill="#fff"/></g><g transform="translate(44.135 14.647)"><path d="M84.069,46.085H82.061L78.82,40.459h-.046q.1,1.49.1,2.126v3.5H77.459V38.648h1.993l3.236,5.57h.036q-.076-1.45-.076-2.05v-3.52h1.422Z" transform="translate(-77.459 -38.541)" fill="#fff"/><path d="M93.124,43.983a1.919,1.919,0,0,1-.726,1.587,3.159,3.159,0,0,1-2.021.58,4.753,4.753,0,0,1-2.11-.448V44.238a8.762,8.762,0,0,0,1.276.473,3.79,3.79,0,0,0,.956.137,1.369,1.369,0,0,0,.8-.2.679.679,0,0,0,.278-.59.646.646,0,0,0-.123-.389,1.377,1.377,0,0,0-.359-.328,9.314,9.314,0,0,0-.966-.5,4.492,4.492,0,0,1-1.024-.616,2.31,2.31,0,0,1-.546-.686,1.96,1.96,0,0,1-.2-.916,1.918,1.918,0,0,1,.67-1.552,2.785,2.785,0,0,1,1.852-.565,4.388,4.388,0,0,1,1.109.138,7.664,7.664,0,0,1,1.1.386l-.51,1.226a7.454,7.454,0,0,0-.986-.341,3.2,3.2,0,0,0-.767-.1,1.02,1.02,0,0,0-.688.208.687.687,0,0,0-.239.545.675.675,0,0,0,.1.363,1.08,1.08,0,0,0,.308.3,9.5,9.5,0,0,0,1,.522,3.992,3.992,0,0,1,1.432,1A1.955,1.955,0,0,1,93.124,43.983Z" transform="translate(-80.221 -38.504)" fill="#fff"/></g><g transform="translate(57.692 14.754)"><path d="M99.261,46.085h-1.58V39.961H95.658V38.648h5.626v1.313H99.261Z" transform="translate(-95.658 -38.648)" fill="#fff"/><path d="M104.754,46.085V38.648h1.581v7.437Z" transform="translate(-97.982 -38.648)" fill="#fff"/><path d="M112.02,46.085h-1.579V39.961h-2.024V38.648h5.626v1.313H112.02Z" transform="translate(-98.918 -38.648)" fill="#fff"/></g><g transform="translate(73.947 14.753)"><path d="M123.6,38.648V43.46a2.772,2.772,0,0,1-.37,1.445,2.4,2.4,0,0,1-1.068.951,3.823,3.823,0,0,1-1.651.331,3.164,3.164,0,0,1-2.232-.735,2.605,2.605,0,0,1-.8-2.012V38.648h1.575V43.2a1.9,1.9,0,0,0,.346,1.261,1.442,1.442,0,0,0,1.147.4,1.411,1.411,0,0,0,1.123-.4,1.914,1.914,0,0,0,.349-1.269V38.648Z" transform="translate(-117.482 -38.648)" fill="#fff"/></g><g transform="translate(81.185 14.754)"><path d="M130.8,46.085h-1.581V39.961H127.2V38.648h5.626v1.313H130.8Z" transform="translate(-127.199 -38.648)" fill="#fff"/></g><g transform="translate(87.642 14.637)"><path d="M142.958,42.316a4.029,4.029,0,0,1-.918,2.839,3.979,3.979,0,0,1-5.258,0,4.044,4.044,0,0,1-.918-2.848,3.992,3.992,0,0,1,.92-2.836,3.443,3.443,0,0,1,2.638-.979,3.4,3.4,0,0,1,2.627.986A4.044,4.044,0,0,1,142.958,42.316Zm-5.438,0a3.1,3.1,0,0,0,.474,1.878,1.658,1.658,0,0,0,1.417.631q1.891,0,1.89-2.508t-1.88-2.513a1.672,1.672,0,0,0-1.423.633A3.1,3.1,0,0,0,137.521,42.316Z" transform="translate(-135.864 -38.491)" fill="#fff"/><path d="M152.719,46.085h-1.555V38.648h4.27V39.94h-2.716v1.918h2.528v1.286h-2.528Z" transform="translate(-139.773 -38.531)" fill="#fff"/></g><g transform="translate(104.799 14.754)"><path d="M163.183,46.085h-4.29V38.648h4.29V39.94h-2.711v1.633H163v1.292h-2.522v1.919h2.711Z" transform="translate(-158.893 -38.648)" fill="#fff"/><path d="M172.926,42.3a3.66,3.66,0,0,1-1.047,2.813,4.276,4.276,0,0,1-3.025.977h-2.11V38.648h2.339a3.943,3.943,0,0,1,2.833.961A3.53,3.53,0,0,1,172.926,42.3Zm-1.641.041q0-2.4-2.12-2.4h-.841v4.843H169Q171.284,44.783,171.285,42.336Z" transform="translate(-160.899 -38.648)" fill="#fff"/><path d="M181.412,46.085h-4.291V38.648h4.291V39.94H178.7v1.633h2.523v1.292H178.7v1.919h2.712Z" transform="translate(-163.551 -38.648)" fill="#fff"/><path d="M186.552,43.232v2.854h-1.579V38.648h2.171a3.722,3.722,0,0,1,2.247.552,2.2,2.2,0,0,1,.367,2.844,2.387,2.387,0,0,1-1.025.8q1.682,2.508,2.192,3.241h-1.752l-1.779-2.854Zm0-1.283h.51a1.954,1.954,0,0,0,1.106-.249.888.888,0,0,0,.357-.783.815.815,0,0,0-.365-.753,2.218,2.218,0,0,0-1.129-.223h-.479Z" transform="translate(-165.557 -38.648)" fill="#fff"/></g><g transform="translate(130.214 14.723)"><path d="M198.515,46.075l-.539-1.77H195.26l-.54,1.77h-1.7l2.629-7.468h1.932l2.64,7.468Zm-.916-3.093q-.749-2.405-.843-2.721c-.063-.211-.108-.377-.136-.5q-.168.651-.963,3.22Z" transform="translate(-193.018 -38.607)" fill="#fff"/></g><g transform="translate(138.377 14.754)"><path d="M203.978,46.085V38.648h1.58v6.135h3.021v1.3Z" transform="translate(-203.978 -38.648)" fill="#fff"/></g><g transform="translate(40.668 26.501)"><path d="M78.986,58.29A3.657,3.657,0,0,1,77.939,61.1a4.273,4.273,0,0,1-3.024.977h-2.11V54.643h2.339a3.941,3.941,0,0,1,2.833.962A3.53,3.53,0,0,1,78.986,58.29Zm-1.64.041q0-2.4-2.12-2.4h-.841v4.843h.678Q77.346,60.778,77.346,58.331Z" transform="translate(-72.805 -54.643)" fill="#fff"/><path d="M87.473,62.08h-4.29V54.643h4.29v1.292H84.762v1.633h2.522v1.292H84.762v1.918h2.711Z" transform="translate(-75.456 -54.643)" fill="#fff"/></g><g transform="translate(56.999 26.501)"><path d="M99.019,62.08h-4.29V54.643h4.29v1.292H96.309v1.633h2.522v1.292H96.309v1.918h2.711Z" transform="translate(-94.729 -54.643)" fill="#fff"/><path d="M108.762,58.29a3.66,3.66,0,0,1-1.047,2.813,4.276,4.276,0,0,1-3.025.977h-2.11V54.643h2.339a3.942,3.942,0,0,1,2.833.962A3.527,3.527,0,0,1,108.762,58.29Zm-1.641.041q0-2.4-2.12-2.4h-.841v4.843h.678Q107.12,60.778,107.121,58.331Z" transform="translate(-96.735 -54.643)" fill="#fff"/></g><g transform="translate(70.544 26.5)"><path d="M119.028,54.643v4.812a2.771,2.771,0,0,1-.369,1.445,2.4,2.4,0,0,1-1.068.951,3.826,3.826,0,0,1-1.651.331,3.169,3.169,0,0,1-2.233-.735,2.611,2.611,0,0,1-.794-2.012V54.643h1.575V59.2a1.907,1.907,0,0,0,.347,1.262,1.444,1.444,0,0,0,1.146.4,1.41,1.41,0,0,0,1.123-.4,1.918,1.918,0,0,0,.349-1.269V54.643Z" transform="translate(-112.913 -54.643)" fill="#fff"/></g><g transform="translate(78.179 26.394)"><path d="M126.659,55.812a1.609,1.609,0,0,0-1.381.669,3.108,3.108,0,0,0-.489,1.864q0,2.488,1.87,2.488a5.92,5.92,0,0,0,1.9-.392v1.322a5.28,5.28,0,0,1-2.049.382,3.129,3.129,0,0,1-2.487-.984,4.165,4.165,0,0,1-.861-2.826,4.614,4.614,0,0,1,.423-2.032,3.049,3.049,0,0,1,1.215-1.338,3.6,3.6,0,0,1,1.858-.466,5.014,5.014,0,0,1,2.181.525l-.51,1.281a8.5,8.5,0,0,0-.841-.345A2.513,2.513,0,0,0,126.659,55.812Z" transform="translate(-123.163 -54.499)" fill="#fff"/></g><g transform="translate(84.235 26.471)"><path d="M136.792,62.07l-.54-1.77h-2.716l-.54,1.77h-1.7l2.63-7.468h1.932l2.639,7.468Zm-.917-3.093q-.751-2.405-.843-2.721c-.064-.211-.109-.377-.135-.5q-.169.651-.963,3.22Z" transform="translate(-131.293 -54.602)" fill="#fff"/></g><g transform="translate(92.068 26.37)"><path d="M145.3,55.812a1.612,1.612,0,0,0-1.381.669,3.108,3.108,0,0,0-.489,1.864q0,2.488,1.87,2.488a5.916,5.916,0,0,0,1.9-.392v1.322a5.286,5.286,0,0,1-2.048.382,3.129,3.129,0,0,1-2.488-.984,4.165,4.165,0,0,1-.861-2.826,4.6,4.6,0,0,1,.423-2.032,3.051,3.051,0,0,1,1.216-1.338A3.6,3.6,0,0,1,145.3,54.5a5.012,5.012,0,0,1,2.181.525l-.509,1.281a8.589,8.589,0,0,0-.841-.345A2.516,2.516,0,0,0,145.3,55.812Zm.785,7.5a1.1,1.1,0,0,1-.385.941,1.985,1.985,0,0,1-1.19.29,2.538,2.538,0,0,1-.744-.106v-.855a3.742,3.742,0,0,0,.37.071,2.538,2.538,0,0,0,.36.036q.367,0,.367-.315,0-.423-.846-.549l.4-.784h.983l-.138.31a1.321,1.321,0,0,1,.6.379A.865.865,0,0,1,146.09,63.316Z" transform="translate(-141.809 -54.499)" fill="#fff"/></g><g transform="translate(98.126 24.343)"><path d="M155.435,61.337l-.539-1.77H152.18l-.54,1.77h-1.7l2.629-7.468H154.5l2.639,7.468ZM152.7,52.77a.444.444,0,0,0-.3.135.8.8,0,0,0-.211.409h-.76a1.932,1.932,0,0,1,.421-1.155,1.219,1.219,0,0,1,.966-.417,1.052,1.052,0,0,1,.41.083c.134.057.267.118.4.183s.258.127.384.181a.935.935,0,0,0,.372.082.448.448,0,0,0,.3-.133.792.792,0,0,0,.212-.407h.759a1.907,1.907,0,0,1-.426,1.155,1.22,1.22,0,0,1-.96.418,1.062,1.062,0,0,1-.411-.084c-.135-.056-.267-.117-.4-.183s-.259-.127-.384-.183A.917.917,0,0,0,152.7,52.77Zm1.814,5.473q-.749-2.405-.844-2.721c-.063-.211-.108-.377-.135-.5q-.168.651-.963,3.22Z" transform="translate(-149.938 -51.732)" fill="#fff"/><path d="M167.545,58.311a4.035,4.035,0,0,1-.916,2.839,3.98,3.98,0,0,1-5.259,0,4.041,4.041,0,0,1-.918-2.848,3.989,3.989,0,0,1,.921-2.837,3.438,3.438,0,0,1,2.636-.979,3.4,3.4,0,0,1,2.627.986A4.044,4.044,0,0,1,167.545,58.311Zm-5.437,0a3.105,3.105,0,0,0,.474,1.878,1.657,1.657,0,0,0,1.416.631q1.891,0,1.891-2.508T164.008,55.8a1.67,1.67,0,0,0-1.422.634A3.093,3.093,0,0,0,162.107,58.311Z" transform="translate(-152.624 -52.436)" fill="#fff"/></g><g transform="translate(114.003 32.694)"><path d="M173.275,63.124a15.882,15.882,0,0,1-.9,2.437h-1.121q.332-1.352.514-2.554H173.2Z" transform="translate(-171.257 -63.007)" fill="#fff"/></g><g transform="translate(120.067 24.246)"><path d="M182.889,55.812a1.611,1.611,0,0,0-1.381.669,3.108,3.108,0,0,0-.49,1.864q0,2.488,1.871,2.488a5.924,5.924,0,0,0,1.9-.392v1.322a5.29,5.29,0,0,1-2.049.382,3.129,3.129,0,0,1-2.487-.984,4.166,4.166,0,0,1-.861-2.826,4.6,4.6,0,0,1,.423-2.032,3.056,3.056,0,0,1,1.216-1.338,3.6,3.6,0,0,1,1.857-.466,5.019,5.019,0,0,1,2.181.525l-.51,1.281a8.5,8.5,0,0,0-.841-.345A2.516,2.516,0,0,0,182.889,55.812Z" transform="translate(-179.393 -52.342)" fill="#fff"/><path d="M188.771,62.08V54.643h1.58V62.08Z" transform="translate(-181.789 -52.379)" fill="#fff"/><path d="M196.744,53.271a5.391,5.391,0,0,1-1.193-.9,6.309,6.309,0,0,1-1.167.9H193.35v-.138a8.981,8.981,0,0,0,1.305-1.531h1.82a5.758,5.758,0,0,0,.547.72q.39.456.757.812v.138Zm.943,8.032H193.4V53.866h4.291v1.292h-2.712v1.633H197.5v1.292h-2.523V60h2.712Z" transform="translate(-182.959 -51.602)" fill="#fff"/></g><g transform="translate(136.383 26.501)"><path d="M207.909,62.08H205.9l-3.241-5.626h-.046q.1,1.491.1,2.126v3.5H201.3V54.643h1.994l3.235,5.57h.036q-.076-1.45-.077-2.05V54.643h1.422Z" transform="translate(-201.299 -54.643)" fill="#fff"/></g><g transform="translate(144.564 26.394)"><path d="M215.777,55.812a1.612,1.612,0,0,0-1.382.669,3.114,3.114,0,0,0-.488,1.864q0,2.488,1.87,2.488a5.909,5.909,0,0,0,1.9-.392v1.322a5.276,5.276,0,0,1-2.048.382,3.127,3.127,0,0,1-2.487-.984,4.161,4.161,0,0,1-.861-2.826A4.6,4.6,0,0,1,212.7,56.3a3.048,3.048,0,0,1,1.214-1.338,3.6,3.6,0,0,1,1.858-.466,5.009,5.009,0,0,1,2.181.525l-.509,1.281a8.519,8.519,0,0,0-.841-.345A2.512,2.512,0,0,0,215.777,55.812Z" transform="translate(-212.281 -54.499)" fill="#fff"/><path d="M221.658,62.08V54.643h1.58V62.08Z" transform="translate(-214.677 -54.536)" fill="#fff"/></g><g transform="translate(154.086 26.471)"><path d="M230.562,62.07l-.539-1.77h-2.717l-.54,1.77h-1.7l2.629-7.468h1.931l2.64,7.468Zm-.917-3.093q-.749-2.405-.844-2.721c-.063-.211-.108-.377-.135-.5q-.167.651-.963,3.22Z" transform="translate(-225.065 -54.602)" fill="#fff"/></g><g transform="translate(164.984 26.501)"><path d="M243.988,62.08H239.7V54.643h4.291v1.292h-2.711v1.633H243.8v1.292h-2.523v1.918h2.711Z" transform="translate(-239.697 -54.643)" fill="#fff"/></g><g transform="translate(172.857 26.394)"><path d="M253.861,62.08h-1.58V55.956h-2.023V54.643h5.626v1.313h-2.023Z" transform="translate(-250.258 -54.536)" fill="#fff"/><path d="M263.645,62.08h-4.291V54.643h4.291v1.292h-2.71v1.633h2.522v1.292h-2.522v1.918h2.71Z" transform="translate(-252.582 -54.536)" fill="#fff"/><path d="M270.257,55.812a1.609,1.609,0,0,0-1.381.669,3.109,3.109,0,0,0-.49,1.864q0,2.488,1.871,2.488a5.921,5.921,0,0,0,1.9-.392v1.322a5.28,5.28,0,0,1-2.049.382,3.129,3.129,0,0,1-2.487-.984,4.165,4.165,0,0,1-.861-2.826,4.6,4.6,0,0,1,.423-2.032,3.049,3.049,0,0,1,1.215-1.338,3.6,3.6,0,0,1,1.858-.466,5.016,5.016,0,0,1,2.181.525l-.511,1.281a8.427,8.427,0,0,0-.841-.345A2.512,2.512,0,0,0,270.257,55.812Z" transform="translate(-254.475 -54.499)" fill="#fff"/></g><g transform="translate(192.18 26.384)"><path d="M282.784,62.08h-2.009l-3.241-5.626h-.046q.1,1.491.1,2.126v3.5h-1.412V54.643h1.994l3.235,5.57h.036q-.076-1.45-.077-2.05V54.643h1.422Z" transform="translate(-276.174 -54.526)" fill="#fff"/><path d="M294.248,58.311a4.033,4.033,0,0,1-.917,2.839,3.98,3.98,0,0,1-5.259,0,4.045,4.045,0,0,1-.918-2.848,3.989,3.989,0,0,1,.921-2.837,3.44,3.44,0,0,1,2.636-.979,3.4,3.4,0,0,1,2.627.986A4.044,4.044,0,0,1,294.248,58.311Zm-5.438,0a3.105,3.105,0,0,0,.474,1.878,1.658,1.658,0,0,0,1.416.631q1.891,0,1.891-2.508T290.711,55.8a1.67,1.67,0,0,0-1.422.634A3.093,3.093,0,0,0,288.81,58.311Z" transform="translate(-278.98 -54.486)" fill="#fff"/><path d="M298.785,62.08V54.643h1.58v6.135h3.023v1.3Z" transform="translate(-281.952 -54.526)" fill="#fff"/><path d="M313.382,58.311a4.028,4.028,0,0,1-.917,2.839,3.979,3.979,0,0,1-5.258,0,4.045,4.045,0,0,1-.918-2.848,4,4,0,0,1,.92-2.837,3.445,3.445,0,0,1,2.638-.979,3.4,3.4,0,0,1,2.627.986A4.044,4.044,0,0,1,313.382,58.311Zm-5.437,0a3.1,3.1,0,0,0,.473,1.878,1.66,1.66,0,0,0,1.417.631q1.891,0,1.89-2.508T309.845,55.8a1.67,1.67,0,0,0-1.422.634A3.092,3.092,0,0,0,307.945,58.311Z" transform="translate(-283.869 -54.486)" fill="#fff"/></g><g transform="translate(222.93 26.394)"><path d="M320.637,57.867h2.956v3.856a8.387,8.387,0,0,1-1.354.328,8.848,8.848,0,0,1-1.3.094,3.282,3.282,0,0,1-2.575-.989,4.109,4.109,0,0,1-.89-2.842,3.742,3.742,0,0,1,1.032-2.807,3.922,3.922,0,0,1,2.862-1.008,5.553,5.553,0,0,1,2.212.459l-.525,1.261a3.763,3.763,0,0,0-1.7-.406,2.1,2.1,0,0,0-1.642.686,2.662,2.662,0,0,0-.616,1.846,2.96,2.96,0,0,0,.5,1.849,1.719,1.719,0,0,0,1.444.639,5.132,5.132,0,0,0,1-.1V59.18h-1.411Z" transform="translate(-317.477 -54.499)" fill="#fff"/><path d="M328.072,62.08V54.643h1.581V62.08Z" transform="translate(-320.184 -54.536)" fill="#fff"/></g><g transform="translate(233.356 26.471)"><path d="M336.98,62.07l-.54-1.77h-2.717l-.54,1.77h-1.7l2.63-7.468h1.93l2.641,7.468Zm-.917-3.093q-.748-2.405-.843-2.721c-.062-.211-.108-.377-.135-.5q-.167.651-.963,3.22Z" transform="translate(-331.481 -54.602)" fill="#fff"/></g><path d="M1.3,0H8.656a1.3,1.3,0,0,1,1.3,1.3V8.654a1.3,1.3,0,0,1-1.3,1.3H1.3A1.3,1.3,0,0,1,0,8.653V1.3A1.3,1.3,0,0,1,1.3,0Z" transform="translate(12.441 0.498)" fill="#fff"/><path d="M1.3,0H8.653a1.3,1.3,0,0,1,1.3,1.3V8.654a1.3,1.3,0,0,1-1.3,1.3H1.3A1.3,1.3,0,0,1,0,8.656V1.3A1.3,1.3,0,0,1,1.3,0Z" transform="translate(24.391 0.498)" fill="#fff"/><path d="M1.3,0H8.653a1.3,1.3,0,0,1,1.3,1.3V8.653a1.3,1.3,0,0,1-1.3,1.3H1.3A1.3,1.3,0,0,1,0,8.655V1.3A1.3,1.3,0,0,1,1.3,0Z" transform="translate(24.391 24.04)" fill="#fff"/><path d="M1.3,0H8.656a1.3,1.3,0,0,1,1.3,1.3V8.653a1.3,1.3,0,0,1-1.3,1.3H1.3A1.3,1.3,0,0,1,0,8.654V1.3A1.3,1.3,0,0,1,1.3,0Z" transform="translate(0.496 12.256)" fill="#fff"/><path d="M1.3,0H8.655a1.3,1.3,0,0,1,1.3,1.3V8.654a1.3,1.3,0,0,1-1.3,1.3H1.3A1.3,1.3,0,0,1,0,8.654V1.3A1.3,1.3,0,0,1,1.3,0Z" transform="translate(12.441 12.256)" fill="#fff"/><path d="M1.3,0H8.656a1.3,1.3,0,0,1,1.3,1.3V8.653a1.3,1.3,0,0,1-1.3,1.3H1.3A1.3,1.3,0,0,1,0,8.652V1.3A1.3,1.3,0,0,1,1.3,0Z" transform="translate(0.496 24.04)" fill="#fff"/><path d="M1.3,0H8.655a1.3,1.3,0,0,1,1.3,1.3v7.35a1.3,1.3,0,0,1-1.3,1.3H1.3A1.3,1.3,0,0,1,0,8.652V1.3A1.3,1.3,0,0,1,1.3,0Z" transform="translate(12.441 24.04)" fill="#fff"/><path d="M1.3,0H8.656a1.3,1.3,0,0,1,1.3,1.3V8.655a1.3,1.3,0,0,1-1.3,1.3H1.3A1.3,1.3,0,0,1,0,8.653V1.3A1.3,1.3,0,0,1,1.3,0Z" transform="translate(0.496 35.826)" fill="#fff"/><path d="M1.3,0H8.655a1.3,1.3,0,0,1,1.3,1.3V8.655a1.3,1.3,0,0,1-1.3,1.3H1.3A1.3,1.3,0,0,1,0,8.653V1.3A1.3,1.3,0,0,1,1.3,0Z" transform="translate(12.441 35.826)" fill="#fff"/><path d="M29.16,24.037a5.475,5.475,0,1,1-5.474-5.477,5.476,5.476,0,0,1,5.474,5.477" transform="translate(-18.211 -18.56)" fill="#fff"/><g transform="translate(40.317 37.436)"><path d="M77.269,75.94a1.925,1.925,0,0,1-.752,1.614,3.27,3.27,0,0,1-2.041.578,5.117,5.117,0,0,1-2.148-.359v-.879a5.711,5.711,0,0,0,1.053.322,5.526,5.526,0,0,0,1.128.118,2.279,2.279,0,0,0,1.375-.346,1.135,1.135,0,0,0,.462-.963,1.238,1.238,0,0,0-.164-.667,1.537,1.537,0,0,0-.548-.48,7.74,7.74,0,0,0-1.168-.5,3.741,3.741,0,0,1-1.566-.928,2.047,2.047,0,0,1-.47-1.4,1.74,1.74,0,0,1,.682-1.442,2.839,2.839,0,0,1,1.8-.536,5.323,5.323,0,0,1,2.153.429l-.284.793a4.885,4.885,0,0,0-1.891-.407,1.833,1.833,0,0,0-1.132.311,1.025,1.025,0,0,0-.409.863,1.32,1.32,0,0,0,.151.668,1.427,1.427,0,0,0,.508.477,6.293,6.293,0,0,0,1.092.479,4.335,4.335,0,0,1,1.7.943A1.854,1.854,0,0,1,77.269,75.94Z" transform="translate(-72.328 -69.684)" fill="#fff"/><path d="M84.41,77.992l-.177-.836h-.044a2.49,2.49,0,0,1-.878.748,2.686,2.686,0,0,1-1.093.2,1.965,1.965,0,0,1-1.372-.45,1.638,1.638,0,0,1-.5-1.281q0-1.78,2.851-1.866l1-.033v-.364a1.492,1.492,0,0,0-.3-1.021,1.229,1.229,0,0,0-.954-.33,3.891,3.891,0,0,0-1.665.45l-.274-.68a4.292,4.292,0,0,1,1.992-.5,2.246,2.246,0,0,1,1.56.466,1.946,1.946,0,0,1,.508,1.5v4.01Zm-.694-6.663a1.084,1.084,0,0,1-.45-.1c-.147-.066-.291-.139-.433-.22s-.277-.153-.408-.22a.838.838,0,0,0-.378-.1.5.5,0,0,0-.406.161,1.142,1.142,0,0,0-.212.488H80.9a1.846,1.846,0,0,1,.379-1.016.993.993,0,0,1,.8-.368,1.2,1.2,0,0,1,.478.1,4.25,4.25,0,0,1,.44.22q.21.121.4.22a.8.8,0,0,0,.365.1.475.475,0,0,0,.392-.158,1.256,1.256,0,0,0,.209-.491H84.9a1.875,1.875,0,0,1-.374,1.016A1,1,0,0,1,83.716,71.329ZM82.4,77.366A1.813,1.813,0,0,0,83.7,76.91a1.686,1.686,0,0,0,.475-1.276V75.1l-.891.038a3.249,3.249,0,0,0-1.534.329,1,1,0,0,0-.47.909.912.912,0,0,0,.293.734A1.217,1.217,0,0,0,82.4,77.366Z" transform="translate(-74.378 -69.651)" fill="#fff"/><path d="M94.124,75.758A3.236,3.236,0,0,1,93.4,78a2.554,2.554,0,0,1-2,.807,2.645,2.645,0,0,1-1.4-.37,2.433,2.433,0,0,1-.946-1.061,3.687,3.687,0,0,1-.333-1.619,3.234,3.234,0,0,1,.719-2.238,2.546,2.546,0,0,1,2-.8,2.487,2.487,0,0,1,1.962.82A3.223,3.223,0,0,1,94.124,75.758Zm-4.484,0a2.778,2.778,0,0,0,.451,1.715,1.793,1.793,0,0,0,2.656,0,2.773,2.773,0,0,0,.453-1.718,2.728,2.728,0,0,0-.453-1.7,1.6,1.6,0,0,0-1.34-.581,1.571,1.571,0,0,0-1.321.573A2.754,2.754,0,0,0,89.64,75.758Z" transform="translate(-76.516 -70.359)" fill="#fff"/><path d="M107.075,72.51a2.191,2.191,0,0,1-.813,1.831,3.689,3.689,0,0,1-2.327.641h-.925v3.082H102.1V70.227h2.035Q107.075,70.227,107.075,72.51ZM103.01,74.2h.822a3.051,3.051,0,0,0,1.756-.391,1.439,1.439,0,0,0,.543-1.254,1.351,1.351,0,0,0-.511-1.158,2.667,2.667,0,0,0-1.589-.381h-1.02Z" transform="translate(-79.934 -69.723)" fill="#fff"/><path d="M114.279,78.7l-.177-.836h-.042a2.492,2.492,0,0,1-.879.748,2.684,2.684,0,0,1-1.093.2,1.962,1.962,0,0,1-1.371-.45,1.637,1.637,0,0,1-.5-1.281q0-1.78,2.851-1.866l1-.033v-.364a1.484,1.484,0,0,0-.3-1.021,1.225,1.225,0,0,0-.952-.33,3.889,3.889,0,0,0-1.665.45l-.275-.68a4.291,4.291,0,0,1,1.992-.5,2.243,2.243,0,0,1,1.56.466,1.946,1.946,0,0,1,.508,1.5V78.7Zm-2.014-.627a1.811,1.811,0,0,0,1.308-.456,1.686,1.686,0,0,0,.475-1.276v-.531l-.892.038a3.248,3.248,0,0,0-1.533.329,1,1,0,0,0-.469.909.914.914,0,0,0,.292.734A1.215,1.215,0,0,0,112.265,78.078Z" transform="translate(-82.01 -70.363)" fill="#fff"/><path d="M119.842,72.862v3.812a1.533,1.533,0,0,0,.328,1.072,1.334,1.334,0,0,0,1.025.354,1.674,1.674,0,0,0,1.35-.5,2.537,2.537,0,0,0,.427-1.646V72.862h.892v5.876h-.736L123,77.95h-.048a1.781,1.781,0,0,1-.759.665,2.567,2.567,0,0,1-1.109.23,2.25,2.25,0,0,1-1.608-.509,2.166,2.166,0,0,1-.535-1.63V72.862Z" transform="translate(-84.238 -70.396)" fill="#fff"/><path d="M128.985,77.891h-.891V69.55h.891Z" transform="translate(-86.577 -69.55)" fill="#fff"/><path d="M136.8,75.758A3.239,3.239,0,0,1,136.073,78a2.557,2.557,0,0,1-2,.807,2.651,2.651,0,0,1-1.4-.37,2.445,2.445,0,0,1-.945-1.061,3.7,3.7,0,0,1-.333-1.619,3.238,3.238,0,0,1,.718-2.238,2.549,2.549,0,0,1,2-.8,2.491,2.491,0,0,1,1.963.82A3.223,3.223,0,0,1,136.8,75.758Zm-4.483,0a2.783,2.783,0,0,0,.45,1.715,1.793,1.793,0,0,0,2.656,0,2.774,2.774,0,0,0,.453-1.718,2.728,2.728,0,0,0-.453-1.7,1.594,1.594,0,0,0-1.339-.581,1.572,1.572,0,0,0-1.321.573A2.759,2.759,0,0,0,132.314,75.758Z" transform="translate(-87.419 -70.359)" fill="#fff"/></g></svg>
